<?xml version="1.0" encoding="UTF-8"?>
<!DOCTYPE svg PUBLIC "-//W3C//DTD SVG 1.1//EN" "http://www.w3.org/Graphics/SVG/1.1/DTD/svg11.dtd">
<!-- Creator: CorelDRAW X7 -->
<svg xmlns="http://www.w3.org/2000/svg" xml:space="preserve" width="111.846mm" height="16.2742mm" version="1.1" style="shape-rendering:geometricPrecision; text-rendering:geometricPrecision; image-rendering:optimizeQuality; fill-rule:evenodd; clip-rule:evenodd"
viewBox="0 0 5071 738"
 xmlns:xlink="http://www.w3.org/1999/xlink">
 <defs>
  <style type="text/css">
   <![CDATA[
    .fil1 {fill:#FEFEFE}
    .fil0 {fill:#FEFEFE;fill-rule:nonzero}
   ]]>
  </style>
 </defs>
 <g id="Layer_x0020_1">
  <metadata id="CorelCorpID_0Corel-Layer"/>
  <g id="_2003497184048">
   <g>
    <path class="fil0" d="M951 407l29 -78 149 0 28 78 85 0 -129 -351 -114 0 -129 351 81 0zm75 -203l26 -79 6 0 25 79 20 55 -97 0 20 -55zm336 208c39,0 69,-15 83,-44l2 0 0 39 73 0 0 -351 -78 0 0 122 -3 0c-12,-22 -36,-40 -77,-40 -71,0 -114,54 -114,138 0,82 40,136 114,136zm-36 -136c0,-48 13,-70 58,-70 37,0 58,13 58,48l0 43c0,35 -21,48 -58,48 -45,0 -58,-22 -58,-69zm362 136c75,0 124,-33 124,-89l0 -5 -78 0 0 3c0,16 -14,23 -45,23 -43,0 -58,-14 -59,-51l181 0c1,-9 3,-24 3,-39 0,-68 -46,-116 -125,-116 -83,0 -133,54 -133,138 0,83 41,136 132,136zm-2 -209c37,0 54,15 53,42l-109 0c4,-27 18,-42 56,-42zm244 204l0 -96 41 0 57 96 90 0 -85 -138 86 -125 -90 0 -60 97 -39 0 0 -185 -78 0 0 351 78 0zm305 5c46,0 74,-21 88,-51l3 0 0 46 73 0 0 -263 -78 0 0 149c0,40 -17,52 -54,52 -40,0 -52,-13 -52,-50l0 -151 -78 0 0 167c0,56 29,101 98,101zm290 -5l0 -149c0,-40 16,-52 54,-52 40,0 52,13 52,50l0 151 78 0 0 -167c0,-56 -29,-102 -98,-102 -46,0 -74,22 -88,52l-3 0 0 -46 -73 0 0 263 78 0zm308 0l0 -351 -78 0 0 351 78 0zm168 5c76,0 124,-33 124,-89l0 -5 -78 0 0 3c0,16 -13,23 -45,23 -42,0 -57,-14 -59,-51l181 0c2,-9 4,-24 4,-39 0,-68 -47,-116 -126,-116 -82,0 -133,54 -133,138 0,83 42,136 132,136zm-2 -209c37,0 55,15 53,42l-108 0c3,-27 18,-42 55,-42zm348 204l0 -141 153 0 0 141 79 0 0 -351 -79 0 0 140 -153 0 0 -140 -79 0 0 351 79 0zm353 5c49,0 75,-21 90,-40l3 0 0 35 72 0 0 -156c0,-70 -40,-113 -118,-113 -74,0 -123,42 -123,105l0 5 75 0 0 -5c0,-27 13,-36 44,-36 31,0 48,6 48,37l0 8 -90 14c-54,8 -84,33 -84,74 0,48 36,72 83,72zm-8 -78c0,-11 7,-16 24,-19l75 -12c0,41 -33,50 -65,50 -23,0 -34,-5 -34,-19zm293 73l0 -39 3 0c14,29 45,44 86,44 72,0 110,-54 110,-136 0,-84 -38,-138 -111,-138 -39,0 -68,20 -80,42l-3 0 0 -124 -78 0 0 351 73 0zm5 -110l0 -43c0,-35 21,-48 58,-48 46,0 58,22 58,70 0,47 -13,69 -58,69 -37,0 -58,-13 -58,-48zm355 115c76,0 124,-33 124,-89l0 -5 -78 0 0 3c0,16 -13,23 -45,23 -43,0 -57,-14 -59,-51l181 0c1,-9 3,-24 3,-39 0,-68 -46,-116 -125,-116 -83,0 -133,54 -133,138 0,83 42,136 132,136zm-2 -209c37,0 55,15 53,42l-108 0c3,-27 17,-42 55,-42zm292 209c75,0 123,-33 123,-89l0 -5 -77 0 0 3c0,16 -14,23 -45,23 -43,0 -58,-14 -59,-51l180 0c2,-9 4,-24 4,-39 0,-68 -47,-116 -126,-116 -82,0 -132,54 -132,138 0,83 41,136 132,136zm-2 -209c36,0 54,15 53,42l-109 0c3,-27 18,-42 56,-42zm239 204l0 -39 3 0c14,29 45,44 86,44 72,0 110,-54 110,-136 0,-84 -38,-138 -111,-138 -39,0 -68,20 -80,42l-3 0 0 -124 -78 0 0 351 73 0zm5 -110l0 -43c0,-35 21,-48 58,-48 46,0 58,22 58,70 0,47 -13,69 -58,69 -37,0 -58,-13 -58,-48z"/>
    <path class="fil0" d="M928 679c50,0 83,-31 83,-82 0,-51 -33,-82 -83,-82l-58 0 0 164 58 0zm0 -140c39,0 55,16 55,58 0,42 -16,58 -55,58l-32 0 0 -116 32 0zm278 140l0 -24 -91 0 0 -46 87 0 0 -24 -87 0 0 -46 91 0 0 -24 -117 0 0 164 117 0zm144 3c42,0 60,-22 60,-47 0,-25 -13,-41 -44,-47l-28 -6c-22,-5 -29,-9 -29,-24 0,-14 10,-21 34,-21 29,0 38,10 38,31l0 2 26 0 0 -3c0,-29 -18,-54 -63,-54 -43,0 -62,22 -62,46 0,26 16,40 44,45l28 6c25,5 30,11 30,26 0,15 -9,21 -33,21 -35,0 -43,-10 -43,-30l0 -3 -26 0 0 4c0,32 21,54 68,54zm163 -3l0 -164 -26 0 0 164 26 0zm152 3c27,0 44,-14 50,-29l1 0 0 26 25 0 0 -84 -77 0 0 23 51 0 0 4c0,25 -14,34 -44,34 -36,0 -51,-16 -51,-59 0,-42 14,-59 49,-59 31,0 44,11 44,36l0 2 27 0 0 -2c0,-38 -26,-61 -70,-61 -49,0 -78,33 -78,84 0,52 26,85 73,85zm185 -3l0 -119 2 0 18 27 62 92 28 0 0 -164 -26 0 0 120 -2 0 -18 -26 -62 -94 -28 0 0 164 26 0zm313 0l0 -24 -91 0 0 -46 87 0 0 -24 -87 0 0 -46 91 0 0 -24 -118 0 0 164 118 0zm105 0l0 -63 19 0c20,0 27,7 34,21l24 42 30 0 -24 -45c-6,-12 -14,-19 -26,-23l0 -2c29,-1 46,-18 46,-45 0,-31 -23,-49 -59,-49l-70 0 0 164 26 0zm0 -140l47 0c21,0 30,8 30,28 0,19 -9,27 -30,27l-47 0 0 -55zm284 140l16 -42 76 0 17 42 29 0 -64 -164 -38 0 -64 164 28 0zm43 -110l11 -30 2 0 10 30 17 44 -57 0 17 -44zm190 110l0 -119 1 0 18 27 62 92 29 0 0 -164 -27 0 0 120 -2 0 -17 -26 -62 -94 -29 0 0 164 27 0zm253 0c51,0 83,-31 83,-82 0,-51 -32,-82 -83,-82l-58 0 0 164 58 0zm0 -140c39,0 55,16 55,58 0,42 -16,58 -55,58l-32 0 0 -116 32 0zm306 140c51,0 83,-31 83,-82 0,-51 -32,-82 -83,-82l-58 0 0 164 58 0zm0 -140c39,0 55,16 55,58 0,42 -16,58 -55,58l-32 0 0 -116 32 0zm278 140l0 -24 -91 0 0 -46 87 0 0 -24 -87 0 0 -46 91 0 0 -24 -117 0 0 164 117 0zm165 0l62 -164 -30 0 -48 135 -2 0 -50 -135 -30 0 63 164 35 0zm248 0l0 -24 -91 0 0 -46 87 0 0 -24 -87 0 0 -46 91 0 0 -24 -117 0 0 164 117 0zm193 0l0 -24 -88 0 0 -140 -26 0 0 164 114 0zm132 3c47,0 77,-34 77,-85 0,-51 -30,-84 -77,-84 -47,0 -76,33 -76,84 0,51 29,85 76,85zm0 -26c-34,0 -48,-16 -48,-59 0,-42 14,-59 48,-59 34,0 48,17 48,59 0,43 -14,59 -48,59zm182 23l0 -53 43 0c34,0 59,-20 59,-55 0,-36 -25,-56 -59,-56l-70 0 0 164 27 0zm46 -140c22,0 30,8 30,32 0,23 -8,32 -30,32l-46 0 0 -64 46 0zm249 140l0 -24 -91 0 0 -46 87 0 0 -24 -87 0 0 -46 91 0 0 -24 -117 0 0 164 117 0zm105 0l0 -63 19 0c20,0 27,7 34,21l24 42 30 0 -24 -45c-6,-12 -13,-19 -25,-23l0 -2c28,-1 45,-18 45,-45 0,-31 -23,-49 -59,-49l-70 0 0 164 26 0zm0 -140l47 0c22,0 30,8 30,28 0,19 -8,27 -30,27l-47 0 0 -55z"/>
   </g>
   <g>
    <polygon class="fil1" points="366,453 384,505 450,505 350,233 288,233 307,287 307,287 313,303 "/>
    <path class="fil1" d="M265 444l79 0 -20 -54 -40 0 -19 54zm30 -137l-26 -74 -7 0 -100 272 63 0 70 -198z"/>
    <polygon class="fil1" points="435,395 515,395 515,505 576,505 576,233 515,233 515,341 415,341 "/>
    <path class="fil1" d="M369 0c204,0 369,165 369,369 0,204 -165,369 -369,369 -204,0 -369,-165 -369,-369 0,-204 165,-369 369,-369zm0 53c174,0 316,141 316,316 0,174 -142,316 -316,316 -174,0 -316,-142 -316,-316 0,-175 142,-316 316,-316z"/>
   </g>
  </g>
 </g>
</svg>
