<?xml version="1.0" encoding="UTF-8"?>
<!DOCTYPE svg PUBLIC "-//W3C//DTD SVG 1.1//EN" "http://www.w3.org/Graphics/SVG/1.1/DTD/svg11.dtd">
<!-- Creator: CorelDRAW X7 -->
<svg xmlns="http://www.w3.org/2000/svg" xml:space="preserve" width="111.846mm" height="16.2742mm" version="1.1" style="shape-rendering:geometricPrecision; text-rendering:geometricPrecision; image-rendering:optimizeQuality; fill-rule:evenodd; clip-rule:evenodd"
viewBox="0 0 5389 784"
 xmlns:xlink="http://www.w3.org/1999/xlink">
 <defs>
  <style type="text/css">
   <![CDATA[
    .fil1 {fill:#373435}
    .fil0 {fill:#373435;fill-rule:nonzero}
   ]]>
  </style>
 </defs>
 <g id="Layer_x0020_1">
  <metadata id="CorelCorpID_0Corel-Layer"/>
  <g id="_2003503699792">
   <g>
    <path class="fil0" d="M1011 433l30 -83 158 0 31 83 90 0 -137 -373 -122 0 -137 373 87 0zm79 -216l28 -84 6 0 27 84 21 58 -103 0 21 -58zm358 221c41,0 73,-16 87,-47l3 0 0 42 77 0 0 -373 -83 0 0 129 -3 0c-13,-23 -38,-42 -81,-42 -77,0 -122,57 -122,146 0,88 43,145 122,145zm-39 -145c0,-51 14,-75 62,-75 40,0 61,14 61,52l0 45c0,38 -21,52 -61,52 -48,0 -62,-23 -62,-74zm385 145c80,0 131,-35 131,-94l0 -6 -82 0 0 3c0,18 -15,25 -48,25 -46,0 -61,-16 -63,-55l192 0c2,-9 4,-25 4,-41 0,-73 -50,-123 -134,-123 -87,0 -140,57 -140,147 0,88 44,144 140,144zm-2 -222c39,0 57,16 56,45l-115 0c3,-30 18,-45 59,-45zm259 217l0 -102 43 0 62 102 95 0 -90 -147 91 -133 -96 0 -63 103 -42 0 0 -196 -82 0 0 373 82 0zm324 5c49,0 78,-22 94,-54l3 0 0 49 77 0 0 -280 -83 0 0 158c0,43 -17,55 -57,55 -42,0 -55,-13 -55,-52l0 -161 -83 0 0 177c0,60 30,108 104,108zm308 -5l0 -159c0,-42 17,-55 57,-55 43,0 55,14 55,53l0 161 84 0 0 -178c0,-59 -31,-108 -104,-108 -49,0 -79,23 -94,55l-3 0 0 -49 -78 0 0 280 83 0zm328 0l0 -373 -83 0 0 373 83 0zm178 5c81,0 132,-35 132,-94l0 -6 -83 0 0 3c0,18 -14,25 -47,25 -46,0 -62,-16 -63,-55l192 0c1,-9 4,-25 4,-41 0,-73 -50,-123 -134,-123 -87,0 -141,57 -141,147 0,88 44,144 140,144zm-2 -222c39,0 58,16 56,45l-115 0c4,-30 19,-45 59,-45zm370 217l0 -151 162 0 0 151 84 0 0 -373 -84 0 0 148 -162 0 0 -148 -84 0 0 373 84 0zm375 5c52,0 80,-23 95,-43l3 0 0 38 78 0 0 -166c0,-75 -44,-120 -126,-120 -79,0 -131,44 -131,111l0 6 80 0 0 -6c0,-28 13,-38 47,-38 33,0 51,6 51,39l0 9 -96 14c-58,9 -89,36 -89,79 0,51 38,77 88,77zm-9 -83c0,-12 8,-18 26,-20l80 -13c0,44 -35,53 -69,53 -25,0 -37,-5 -37,-20zm312 78l0 -42 2 0c15,31 49,47 92,47 76,0 117,-57 117,-145 0,-89 -41,-146 -117,-146 -43,0 -73,21 -86,45l-3 0 0 -132 -83 0 0 373 78 0zm5 -118l0 -45c0,-38 22,-52 62,-52 48,0 61,24 61,75 0,51 -13,74 -61,74 -40,0 -62,-14 -62,-52zm377 123c81,0 132,-35 132,-94l0 -6 -83 0 0 3c0,18 -14,25 -47,25 -46,0 -62,-16 -63,-55l192 0c1,-9 4,-25 4,-41 0,-73 -50,-123 -134,-123 -87,0 -141,57 -141,147 0,88 44,144 140,144zm-2 -222c39,0 58,16 56,45l-115 0c4,-30 19,-45 59,-45zm310 222c80,0 131,-35 131,-94l0 -6 -82 0 0 3c0,18 -14,25 -48,25 -45,0 -61,-16 -63,-55l192 0c2,-9 4,-25 4,-41 0,-73 -49,-123 -133,-123 -88,0 -141,57 -141,147 0,88 44,144 140,144zm-2 -222c39,0 58,16 56,45l-115 0c3,-30 19,-45 59,-45zm254 217l0 -42 3 0c15,31 48,47 92,47 76,0 117,-57 117,-145 0,-89 -41,-146 -118,-146 -42,0 -72,21 -85,45l-3 0 0 -132 -83 0 0 373 77 0zm6 -118l0 -45c0,-38 22,-52 62,-52 48,0 61,24 61,75 0,51 -14,74 -61,74 -40,0 -62,-14 -62,-52z"/>
    <path class="fil0" d="M986 722c54,0 88,-34 88,-87 0,-54 -34,-88 -88,-88l-62 0 0 175 62 0zm0 -149c42,0 58,17 58,62 0,44 -16,61 -58,61l-34 0 0 -123 34 0zm295 149l0 -26 -96 0 0 -49 93 0 0 -26 -93 0 0 -48 96 0 0 -26 -124 0 0 175 124 0zm153 2c45,0 65,-22 65,-50 0,-26 -15,-42 -47,-49l-30 -6c-24,-6 -31,-10 -31,-26 0,-15 10,-22 36,-22 31,0 41,11 41,32l0 3 27 0 0 -3c0,-31 -19,-58 -67,-58 -45,0 -65,24 -65,49 0,28 16,43 46,48l30 6c26,6 32,12 32,27 0,17 -10,24 -36,24 -36,0 -45,-11 -45,-33l0 -3 -28 0 0 5c0,33 22,56 72,56zm174 -2l0 -175 -28 0 0 175 28 0zm161 2c29,0 47,-14 54,-30l1 0 0 28 26 0 0 -90 -82 0 0 24 55 0 0 5c0,27 -15,36 -47,36 -39,0 -54,-17 -54,-62 0,-46 15,-63 51,-63 34,0 47,12 47,38l0 2 30 0 0 -2c0,-40 -29,-65 -75,-65 -52,0 -83,35 -83,90 0,55 28,89 77,89zm197 -2l0 -127 2 0 19 28 66 99 30 0 0 -175 -28 0 0 128 -2 0 -19 -28 -66 -100 -30 0 0 175 28 0zm332 0l0 -26 -96 0 0 -49 92 0 0 -26 -92 0 0 -48 96 0 0 -26 -124 0 0 175 124 0zm112 0l0 -67 21 0c20,0 28,7 36,22l24 45 33 0 -26 -49c-7,-12 -14,-19 -27,-24l0 -2c31,-1 49,-19 49,-48 0,-33 -25,-52 -63,-52l-75 0 0 175 28 0zm0 -149l50 0c23,0 31,8 31,29 0,21 -8,29 -31,29l-50 0 0 -58zm302 149l17 -46 81 0 18 46 30 0 -68 -175 -40 0 -68 175 30 0zm45 -117l12 -32 2 0 11 32 18 46 -61 0 18 -46zm202 117l0 -127 2 0 19 28 66 99 30 0 0 -175 -28 0 0 128 -2 0 -19 -28 -66 -100 -30 0 0 175 28 0zm269 0c54,0 89,-34 89,-87 0,-54 -35,-88 -89,-88l-61 0 0 175 61 0zm0 -149c42,0 59,17 59,62 0,44 -17,61 -59,61l-33 0 0 -123 33 0zm325 149c54,0 89,-34 89,-87 0,-54 -35,-88 -89,-88l-62 0 0 175 62 0zm0 -149c42,0 59,17 59,62 0,44 -17,61 -59,61l-33 0 0 -123 33 0zm296 149l0 -26 -97 0 0 -49 93 0 0 -26 -93 0 0 -48 97 0 0 -26 -125 0 0 175 125 0zm175 0l66 -175 -31 0 -52 143 -2 0 -53 -143 -31 0 66 175 37 0zm264 0l0 -26 -97 0 0 -49 93 0 0 -26 -93 0 0 -48 97 0 0 -26 -125 0 0 175 125 0zm204 0l0 -26 -92 0 0 -149 -29 0 0 175 121 0zm141 2c50,0 82,-35 82,-89 0,-55 -32,-90 -82,-90 -49,0 -81,35 -81,90 0,54 32,89 81,89zm0 -27c-36,0 -51,-17 -51,-62 0,-46 15,-63 51,-63 37,0 52,17 52,63 0,45 -15,62 -52,62zm193 25l0 -56 46 0c37,0 63,-22 63,-60 0,-37 -26,-59 -63,-59l-74 0 0 175 28 0zm50 -149c22,0 32,8 32,33 0,25 -10,34 -32,34l-50 0 0 -67 50 0zm264 149l0 -26 -97 0 0 -49 93 0 0 -26 -93 0 0 -48 97 0 0 -26 -125 0 0 175 125 0zm112 0l0 -67 20 0c21,0 28,7 36,22l25 45 33 0 -26 -49c-7,-12 -14,-19 -27,-24l0 -2c31,-1 48,-19 48,-48 0,-33 -24,-52 -62,-52l-75 0 0 175 28 0zm0 -149l50 0c23,0 31,8 31,29 0,21 -8,29 -31,29l-50 0 0 -58z"/>
   </g>
   <g>
    <polygon class="fil1" points="389,482 408,536 479,536 372,248 306,248 326,305 326,305 332,322 "/>
    <path class="fil1" d="M282 472l83 0 -20 -58 -43 0 -20 58zm31 -146l-27 -78 -8 0 -106 288 67 0 74 -210z"/>
    <polygon class="fil1" points="462,420 548,420 548,536 612,536 612,248 548,248 548,362 441,362 "/>
    <path class="fil1" d="M392 0c217,0 392,176 392,392 0,217 -175,392 -392,392 -216,0 -392,-175 -392,-392 0,-216 176,-392 392,-392zm0 56c185,0 336,151 336,336 0,185 -151,336 -336,336 -185,0 -336,-151 -336,-336 0,-185 151,-336 336,-336z"/>
   </g>
  </g>
 </g>
</svg>
